<mxfile host="app.diagrams.net" modified="2023-06-27T11:44:11.392Z" agent="Mozilla/5.0 (Windows NT 10.0; Win64; x64) AppleWebKit/537.36 (KHTML, like Gecko) Chrome/114.0.0.0 Safari/537.36" version="21.5.1" etag="3qLeEocR0AGCGLp0CBSG" type="github">
  <diagram name="Page-1" id="xdtW6GnARBs6_S_TcqcK">
    <mxGraphModel>
      <root>
        <mxCell id="0" />
        <mxCell id="1" parent="0" />
        <mxCell id="2" value="Dependent on products" style="rounded=1;absoluteArcSize=1;arcSize=14;whiteSpace=wrap;strokeWidth=2;" vertex="1" parent="1">
          <mxGeometry x="115" width="182" height="34" as="geometry" />
        </mxCell>
        <mxCell id="3" value="Managing wishlist items" style="whiteSpace=wrap;strokeWidth=2;" vertex="1" parent="1">
          <mxGeometry x="114" y="103" width="186" height="34" as="geometry" />
        </mxCell>
        <mxCell id="4" value="Adding products to a wishlist" style="curved=1;startArrow=none;endArrow=block;exitX=0.3178513499546571;exitY=1;entryX=0.3163921811384279;entryY=0;" edge="1" parent="1" source="2" target="3">
          <mxGeometry relative="1" as="geometry">
            <Array as="points">
              <mxPoint x="104" y="69" />
            </Array>
          </mxGeometry>
        </mxCell>
        <mxCell id="5" value="Viewing wishlist items" style="curved=1;startArrow=none;endArrow=block;exitX=0.6885445978475407;exitY=1;entryX=0.6791135312271636;entryY=0;" edge="1" parent="1" source="2" target="3">
          <mxGeometry relative="1" as="geometry">
            <Array as="points">
              <mxPoint x="309" y="69" />
            </Array>
          </mxGeometry>
        </mxCell>
      </root>
    </mxGraphModel>
  </diagram>
</mxfile>
